<?xml version="1.0" encoding="utf-8"?>
<!-- Uploaded to: SVG Repo, www.svgrepo.com, Generator: SVG Repo Mixer Tools -->
<svg width="800px" height="800px" viewBox="0 0 1024 1024" class="icon"  version="1.1" xmlns="http://www.w3.org/2000/svg"><path d="M276.495468 361.957704c54.912387 0 98.996979-44.084592 98.996979-98.996979 0-54.912387-44.084592-98.996979-98.996979-98.996979C221.583082 163.963746 177.498489 208.048338 177.498489 262.960725c-0.773414 54.138973 44.084592 98.996979 98.996979 98.996979zM553.377644 556.858006c-44.858006 0-81.208459 36.350453-81.20846 81.208459S508.519637 719.274924 553.377644 719.274924s81.208459-36.350453 81.208459-81.208459c0.773414-44.858006-35.577039-81.208459-81.208459-81.208459z m231.250755-315.55287c-37.897281 0-68.833837 30.936556-68.833837 68.833837s30.936556 68.833837 68.833837 68.833837 68.833837-30.936556 68.833837-68.833837c0-38.670695-30.936556-68.833837-68.833837-68.833837zM291.963746 447.806647c0-33.256798-27.069486-60.326284-60.326284-60.326284s-60.326284 27.069486-60.326284 60.326284 27.069486 60.326284 60.326284 60.326284 60.326284-27.069486 60.326284-60.326284z m34.030212-26.296073c0 29.389728 23.202417 52.592145 52.592145 52.592145s52.592145-23.202417 52.592145-52.592145-23.202417-52.592145-52.592145-52.592145-52.592145 23.202417-52.592145 52.592145zM517.800604 531.335347c27.069486 0 48.725076-21.655589 48.725076-48.725075s-21.655589-48.725076-48.725076-48.725076-48.725076 21.655589-48.725075 48.725076c-0.773414 26.296073 21.655589 48.725076 48.725075 48.725075z m237.438067-315.55287c27.069486 0 48.725076-21.655589 48.725075-48.725075s-21.655589-48.725076-48.725075-48.725076-48.725076 21.655589-48.725076 48.725076 21.655589 48.725076 48.725076 48.725075z m-42.537765 398.308157c-27.069486 0-48.725076 21.655589-48.725075 48.725076s21.655589 48.725076 48.725075 48.725075 48.725076-21.655589 48.725076-48.725075-21.655589-48.725076-48.725076-48.725076z m-329.47432-448.58006c29.389728 0 52.592145-23.202417 52.592145-52.592145s-23.202417-52.592145-52.592145-52.592145-52.592145 23.202417-52.592145 52.592145c0 28.616314 23.975831 52.592145 52.592145 52.592145z m-41.76435 333.34139c-58.779456 0-106.731118 47.951662-106.731118 106.731118 0 58.779456 47.951662 106.731118 106.731118 106.731117C400.241692 711.540785 448.193353 663.589124 448.193353 604.809668c0-58.779456-47.951662-105.957704-106.731117-105.957704z m358.864048-240.531722c0-80.435045-64.966767-145.401813-145.401813-145.401813S409.522659 177.885196 409.522659 258.320242s64.966767 145.401813 145.401812 145.401812c80.435045 0.773414 145.401813-64.966767 145.401813-145.401812z m12.374622 130.706948c-55.685801 0-101.317221 45.63142-101.31722 101.317221 0 55.685801 45.63142 101.317221 101.31722 101.31722 55.685801 0 101.317221-45.63142 101.317221-101.31722 0-55.685801-44.858006-101.317221-101.317221-101.317221z" fill="#1ca538" /><path d="M538.682779 744.797583h-53.365558l-6.960726 226.610272h66.513596l-6.187312-226.610272z" fill="#65320b" /></svg>